<mxfile host="Electron" modified="2023-06-09T07:12:30.851Z" agent="Mozilla/5.0 (Windows NT 10.0; Win64; x64) AppleWebKit/537.36 (KHTML, like Gecko) draw.io/21.2.8 Chrome/112.0.5615.165 Electron/24.2.0 Safari/537.36" etag="ILsP0xTtBs80jvLjIMr_" version="21.2.8" type="device">
  <diagram name="Page-1" id="0783ab3e-0a74-02c8-0abd-f7b4e66b4bec">
    <mxGraphModel dx="1418" dy="828" grid="1" gridSize="10" guides="1" tooltips="1" connect="1" arrows="1" fold="1" page="1" pageScale="1" pageWidth="827" pageHeight="1169" background="none" math="0" shadow="0">
      <root>
        <mxCell id="0" />
        <mxCell id="1" parent="0" />
        <mxCell id="1c1d494c118603dd-2" value="&lt;font color=&quot;#516a8f&quot;&gt;動作者&lt;/font&gt;" style="swimlane;html=1;startSize=20;fillColor=#dae8fc;strokeColor=#516A8F;" parent="1" vertex="1">
          <mxGeometry x="180" y="80" width="250" height="440" as="geometry" />
        </mxCell>
        <mxCell id="oV55MLfGHQ4IqI-GOnY7-2" value="&lt;font color=&quot;#516a8f&quot;&gt;輸入新密碼&lt;/font&gt;" style="rounded=1;whiteSpace=wrap;html=1;shadow=0;comic=0;labelBackgroundColor=none;strokeWidth=1;fontFamily=Verdana;fontSize=12;align=center;arcSize=15;fillColor=#dae8fc;strokeColor=#516A8F;glass=0;" parent="1c1d494c118603dd-2" vertex="1">
          <mxGeometry x="75" y="125" width="100" height="30" as="geometry" />
        </mxCell>
        <mxCell id="1c1d494c118603dd-3" value="&lt;font color=&quot;#516a8f&quot;&gt;系統&lt;/font&gt;" style="swimlane;html=1;startSize=20;fillColor=#dae8fc;strokeColor=#516A8F;" parent="1" vertex="1">
          <mxGeometry x="430" y="80" width="250" height="440" as="geometry" />
        </mxCell>
        <mxCell id="oV55MLfGHQ4IqI-GOnY7-3" value="&lt;p style=&quot;line-height: 130%;&quot;&gt;&lt;font color=&quot;#516a8f&quot;&gt;密碼須經由SHA256運算後，再做儲存。&lt;/font&gt;&lt;/p&gt;" style="shape=note;whiteSpace=wrap;html=1;backgroundOutline=1;darkOpacity=0.05;size=12;fillColor=#dae8fc;strokeColor=#516A8F;align=left;labelPadding=0;noLabel=0;" parent="1c1d494c118603dd-3" vertex="1">
          <mxGeometry x="-190" y="300" width="135" height="60" as="geometry" />
        </mxCell>
        <mxCell id="oV55MLfGHQ4IqI-GOnY7-5" value="&lt;font color=&quot;#516a8f&quot;&gt;顯示&lt;br&gt;更改密碼畫面&lt;/font&gt;" style="rounded=1;whiteSpace=wrap;html=1;shadow=0;comic=0;labelBackgroundColor=none;strokeWidth=1;fontFamily=Verdana;fontSize=12;align=center;arcSize=15;fillColor=#dae8fc;strokeColor=#516A8F;glass=0;" parent="1c1d494c118603dd-3" vertex="1">
          <mxGeometry x="75" y="120" width="100" height="40" as="geometry" />
        </mxCell>
        <mxCell id="oV55MLfGHQ4IqI-GOnY7-6" value="&lt;font color=&quot;#516a8f&quot;&gt;將更新的密碼&lt;br&gt;儲存於資料庫&lt;br&gt;&lt;/font&gt;" style="rounded=1;whiteSpace=wrap;html=1;shadow=0;comic=0;labelBackgroundColor=none;strokeWidth=1;fontFamily=Verdana;fontSize=12;align=center;arcSize=15;fillColor=#dae8fc;strokeColor=#516A8F;glass=0;" parent="1c1d494c118603dd-3" vertex="1">
          <mxGeometry x="75" y="210" width="100" height="40" as="geometry" />
        </mxCell>
        <mxCell id="oV55MLfGHQ4IqI-GOnY7-7" value="&lt;font color=&quot;#516a8f&quot;&gt;自動登入&lt;br&gt;顯示首頁&lt;br&gt;&lt;/font&gt;" style="rounded=1;whiteSpace=wrap;html=1;shadow=0;comic=0;labelBackgroundColor=none;strokeWidth=1;fontFamily=Verdana;fontSize=12;align=center;arcSize=15;fillColor=#dae8fc;strokeColor=#516A8F;glass=0;" parent="1c1d494c118603dd-3" vertex="1">
          <mxGeometry x="75" y="290" width="100" height="40" as="geometry" />
        </mxCell>
        <mxCell id="oV55MLfGHQ4IqI-GOnY7-8" style="edgeStyle=none;rounded=0;html=1;labelBackgroundColor=none;startArrow=none;startFill=0;startSize=5;endArrow=classic;endFill=1;endSize=5;jettySize=auto;orthogonalLoop=1;strokeWidth=1;fontFamily=Verdana;fontSize=12;exitX=0.5;exitY=1;exitDx=0;exitDy=0;strokeColor=#516A8F;arcSize=20;entryX=0.5;entryY=0;entryDx=0;entryDy=0;" parent="1c1d494c118603dd-3" source="oV55MLfGHQ4IqI-GOnY7-6" target="oV55MLfGHQ4IqI-GOnY7-7" edge="1">
          <mxGeometry relative="1" as="geometry">
            <mxPoint x="124.71000000000004" y="255" as="sourcePoint" />
            <mxPoint x="124.71000000000004" y="290" as="targetPoint" />
          </mxGeometry>
        </mxCell>
        <mxCell id="oV55MLfGHQ4IqI-GOnY7-13" style="rounded=0;orthogonalLoop=1;jettySize=auto;html=1;entryX=0;entryY=1;entryDx=0;entryDy=0;strokeColor=#516A8F;endArrow=none;endFill=0;dashed=1;strokeWidth=1;exitX=0;exitY=0;exitDx=135;exitDy=36;exitPerimeter=0;" parent="1c1d494c118603dd-3" source="oV55MLfGHQ4IqI-GOnY7-3" target="oV55MLfGHQ4IqI-GOnY7-6" edge="1">
          <mxGeometry relative="1" as="geometry">
            <mxPoint x="72.5" y="365" as="targetPoint" />
          </mxGeometry>
        </mxCell>
        <mxCell id="60571a20871a0731-4" value="" style="ellipse;whiteSpace=wrap;html=1;rounded=0;shadow=0;comic=0;labelBackgroundColor=none;strokeWidth=1;fillColor=#d5e8d4;fontFamily=Verdana;fontSize=12;align=center;strokeColor=#82b366;" parent="1c1d494c118603dd-3" vertex="1">
          <mxGeometry x="110" y="60" width="30" height="30" as="geometry" />
        </mxCell>
        <mxCell id="1c1d494c118603dd-39" style="edgeStyle=none;rounded=0;html=1;labelBackgroundColor=none;startArrow=none;startFill=0;startSize=5;endArrow=classic;endFill=1;endSize=5;jettySize=auto;orthogonalLoop=1;strokeWidth=1;fontFamily=Verdana;fontSize=12;exitX=0.5;exitY=1;exitDx=0;exitDy=0;strokeColor=#516A8F;arcSize=20;entryX=0.5;entryY=0;entryDx=0;entryDy=0;" parent="1c1d494c118603dd-3" source="60571a20871a0731-4" target="oV55MLfGHQ4IqI-GOnY7-5" edge="1">
          <mxGeometry relative="1" as="geometry">
            <mxPoint x="89.55000000000018" y="259.9999999999998" as="sourcePoint" />
            <mxPoint x="125" y="110" as="targetPoint" />
          </mxGeometry>
        </mxCell>
        <mxCell id="oV55MLfGHQ4IqI-GOnY7-18" style="edgeStyle=none;rounded=0;html=1;labelBackgroundColor=none;startArrow=none;startFill=0;startSize=5;endArrow=classic;endFill=1;endSize=5;jettySize=auto;orthogonalLoop=1;strokeWidth=1;fontFamily=Verdana;fontSize=12;exitX=0.5;exitY=1;exitDx=0;exitDy=0;strokeColor=#516A8F;arcSize=20;entryX=0.5;entryY=0;entryDx=0;entryDy=0;" parent="1c1d494c118603dd-3" source="oV55MLfGHQ4IqI-GOnY7-7" target="oV55MLfGHQ4IqI-GOnY7-16" edge="1">
          <mxGeometry relative="1" as="geometry">
            <mxPoint x="124.71000000000004" y="350" as="sourcePoint" />
            <mxPoint x="124.71000000000004" y="390" as="targetPoint" />
          </mxGeometry>
        </mxCell>
        <mxCell id="oV55MLfGHQ4IqI-GOnY7-14" value="" style="group" parent="1c1d494c118603dd-3" vertex="1" connectable="0">
          <mxGeometry x="109" y="370" width="32" height="32" as="geometry" />
        </mxCell>
        <mxCell id="oV55MLfGHQ4IqI-GOnY7-15" value="" style="ellipse;whiteSpace=wrap;html=1;aspect=fixed;fillColor=#b85450;strokeColor=#f8cecc;" parent="oV55MLfGHQ4IqI-GOnY7-14" vertex="1">
          <mxGeometry x="1" y="1" width="30" height="30" as="geometry" />
        </mxCell>
        <mxCell id="oV55MLfGHQ4IqI-GOnY7-16" value="" style="ellipse;whiteSpace=wrap;html=1;aspect=fixed;fillColor=none;strokeColor=#B85450;" parent="oV55MLfGHQ4IqI-GOnY7-14" vertex="1">
          <mxGeometry width="32" height="32" as="geometry" />
        </mxCell>
        <mxCell id="oV55MLfGHQ4IqI-GOnY7-11" style="edgeStyle=none;rounded=1;html=1;labelBackgroundColor=none;startArrow=none;startFill=0;startSize=5;endArrow=classic;endFill=1;endSize=5;jettySize=auto;orthogonalLoop=1;strokeWidth=1;fontFamily=Verdana;fontSize=12;strokeColor=#516A8F;arcSize=15;entryX=1;entryY=0.5;entryDx=0;entryDy=0;exitX=0;exitY=0.5;exitDx=0;exitDy=0;" parent="1" source="oV55MLfGHQ4IqI-GOnY7-5" target="oV55MLfGHQ4IqI-GOnY7-2" edge="1">
          <mxGeometry relative="1" as="geometry">
            <mxPoint x="465" y="250" as="sourcePoint" />
            <mxPoint x="666" y="320" as="targetPoint" />
          </mxGeometry>
        </mxCell>
        <mxCell id="oV55MLfGHQ4IqI-GOnY7-12" style="edgeStyle=none;rounded=1;html=1;labelBackgroundColor=none;startArrow=none;startFill=0;startSize=5;endArrow=classic;endFill=1;endSize=5;jettySize=auto;orthogonalLoop=1;strokeWidth=1;fontFamily=Verdana;fontSize=12;strokeColor=#516A8F;arcSize=15;entryX=0;entryY=0.5;entryDx=0;entryDy=0;exitX=0.5;exitY=1;exitDx=0;exitDy=0;" parent="1" source="oV55MLfGHQ4IqI-GOnY7-2" target="oV55MLfGHQ4IqI-GOnY7-6" edge="1">
          <mxGeometry relative="1" as="geometry">
            <mxPoint x="295" y="300" as="sourcePoint" />
            <mxPoint x="496" y="370" as="targetPoint" />
            <Array as="points">
              <mxPoint x="305" y="310" />
            </Array>
          </mxGeometry>
        </mxCell>
      </root>
    </mxGraphModel>
  </diagram>
</mxfile>
